<mxfile host="app.diagrams.net" modified="2021-10-26T05:06:21.572Z" agent="5.0 (Windows NT 10.0; Win64; x64) AppleWebKit/537.36 (KHTML, like Gecko) Chrome/93.0.4577.82 Safari/537.36" etag="kR9tb7r0vs_h2gYGr1R1" version="15.5.9" type="github">
  <diagram id="QUVvCAwXGch43k0VpOjs" name="Page-1">
    <mxGraphModel dx="1830" dy="1004" grid="1" gridSize="10" guides="1" tooltips="1" connect="1" arrows="1" fold="1" page="1" pageScale="1" pageWidth="827" pageHeight="1169" math="0" shadow="0">
      <root>
        <mxCell id="0" />
        <mxCell id="1" parent="0" />
        <mxCell id="94RK0DoZ00d1Tz80vGn9-24" value="" style="rounded=0;whiteSpace=wrap;html=1;fillColor=#f5f5f5;strokeColor=#666666;fontColor=#333333;" parent="1" vertex="1">
          <mxGeometry x="270" y="100" width="590" height="200" as="geometry" />
        </mxCell>
        <mxCell id="94RK0DoZ00d1Tz80vGn9-3" value="&lt;div class=&quot;mind-clipboard&quot; style=&quot;line-height: 120%&quot;&gt;&lt;div style=&quot;text-align: left&quot;&gt;&lt;br&gt;&lt;/div&gt;&lt;div style=&quot;text-align: left&quot;&gt;&lt;div&gt;&lt;/div&gt;&lt;div&gt;&lt;/div&gt;&lt;div&gt;&lt;/div&gt;&lt;/div&gt;&lt;/div&gt;" style="rounded=0;whiteSpace=wrap;html=1;" parent="1" vertex="1">
          <mxGeometry x="280" y="130" width="270" height="70" as="geometry" />
        </mxCell>
        <mxCell id="94RK0DoZ00d1Tz80vGn9-4" value="&lt;div style=&quot;text-align: left&quot;&gt;&lt;b&gt;S1-A1:&amp;nbsp;&lt;/b&gt;&lt;b&gt;&lt;i&gt;The location and &lt;u&gt;ambience&lt;/u&gt; is just Ok but the food is what makes up for it.&lt;/i&gt;&lt;/b&gt;&lt;/div&gt;&lt;div style=&quot;text-align: left&quot;&gt;- Aspect =&amp;nbsp;&lt;span style=&quot;color: rgb(255 , 102 , 255) ; font-family: &amp;#34;times new roman&amp;#34; ; font-size: 10.0652pt&quot;&gt;ambience&lt;/span&gt;&lt;span&gt;, polarity =&amp;nbsp;&lt;/span&gt;&lt;font color=&quot;#0d47a1&quot;&gt;neutral&lt;/font&gt;&lt;div&gt;&lt;span style=&quot;font-size: 12pt&quot;&gt; &lt;/span&gt;&lt;/div&gt;&lt;/div&gt;" style="text;html=1;strokeColor=none;fillColor=none;align=center;verticalAlign=middle;whiteSpace=wrap;rounded=0;" parent="1" vertex="1">
          <mxGeometry x="287" y="137.5" width="263" height="52.5" as="geometry" />
        </mxCell>
        <mxCell id="94RK0DoZ00d1Tz80vGn9-5" value="&lt;div class=&quot;mind-clipboard&quot; style=&quot;line-height: 120%&quot;&gt;&lt;div style=&quot;text-align: left&quot;&gt;&lt;br&gt;&lt;/div&gt;&lt;div style=&quot;text-align: left&quot;&gt;&lt;div&gt;&lt;/div&gt;&lt;div&gt;&lt;/div&gt;&lt;div&gt;&lt;/div&gt;&lt;/div&gt;&lt;/div&gt;" style="rounded=0;whiteSpace=wrap;html=1;" parent="1" vertex="1">
          <mxGeometry x="580" y="130" width="270" height="70" as="geometry" />
        </mxCell>
        <mxCell id="94RK0DoZ00d1Tz80vGn9-6" value="&lt;div style=&quot;text-align: left&quot;&gt;&lt;div class=&quot;mind-clipboard&quot;&gt;&lt;b&gt;S1-A2:&amp;nbsp;&lt;/b&gt;&lt;b&gt;&lt;i&gt;The location and&amp;nbsp;&lt;u&gt;ambience&lt;/u&gt;&amp;nbsp;is just Ok but the food is what makes up for it.&lt;/i&gt;&lt;/b&gt;&lt;br&gt;&lt;div&gt;&lt;div&gt;&lt;/div&gt;-&amp;nbsp;Aspect&amp;nbsp;=&amp;nbsp;&lt;span style=&quot;font-size: 8.62733pt ; font-family: &amp;#34;arial&amp;#34; ; color: rgb(102 , 0 , 204)&quot;&gt;food&lt;/span&gt;&lt;span style=&quot;font-size: 8.62733pt ; font-family: &amp;#34;arial&amp;#34;&quot;&gt;, polarity = &lt;/span&gt;&lt;span style=&quot;font-size: 8.62733pt ; font-family: &amp;#34;arial&amp;#34; ; color: rgb(0 , 153 , 0)&quot;&gt;positive&lt;/span&gt;&lt;span&gt;&amp;nbsp;&lt;/span&gt;&lt;br&gt;&lt;div&gt;&lt;/div&gt;&lt;div&gt;&lt;/div&gt;&lt;/div&gt;&lt;div&gt;&lt;/div&gt;&lt;div&gt;&lt;/div&gt;&lt;div&gt;&lt;/div&gt;&lt;/div&gt;&lt;/div&gt;" style="text;html=1;strokeColor=none;fillColor=none;align=center;verticalAlign=middle;whiteSpace=wrap;rounded=0;" parent="1" vertex="1">
          <mxGeometry x="587" y="137.5" width="263" height="55" as="geometry" />
        </mxCell>
        <mxCell id="94RK0DoZ00d1Tz80vGn9-7" value="&lt;div class=&quot;mind-clipboard&quot; style=&quot;line-height: 120%&quot;&gt;&lt;div style=&quot;text-align: left&quot;&gt;&lt;br&gt;&lt;/div&gt;&lt;div style=&quot;text-align: left&quot;&gt;&lt;div&gt;&lt;/div&gt;&lt;div&gt;&lt;/div&gt;&lt;div&gt;&lt;/div&gt;&lt;/div&gt;&lt;/div&gt;" style="rounded=0;whiteSpace=wrap;html=1;" parent="1" vertex="1">
          <mxGeometry x="280" y="220" width="270" height="70" as="geometry" />
        </mxCell>
        <mxCell id="94RK0DoZ00d1Tz80vGn9-8" value="&lt;div style=&quot;text-align: left&quot;&gt;&lt;div class=&quot;mind-clipboard&quot; style=&quot;text-align: justify&quot;&gt;&lt;b&gt;S2-A1:&amp;nbsp;&lt;/b&gt;&lt;b&gt;&lt;i&gt;Anyway, the &lt;u&gt;food&lt;/u&gt; is good, the price is right and they have a decent wine list.&lt;/i&gt;&lt;/b&gt;&lt;/div&gt;&lt;div class=&quot;mind-clipboard&quot;&gt;&lt;div&gt;&lt;div&gt;&lt;/div&gt;-&amp;nbsp;Aspect&amp;nbsp;=&amp;nbsp;&lt;span style=&quot;color: rgb(102 , 0 , 204)&quot;&gt;food&lt;/span&gt;&lt;span&gt;, polarity =&amp;nbsp;&lt;/span&gt;&lt;span style=&quot;color: rgb(0 , 153 , 0)&quot;&gt;positive&lt;/span&gt;&lt;/div&gt;&lt;div&gt;&lt;div&gt;&lt;/div&gt;&lt;div&gt;&lt;/div&gt;&lt;/div&gt;&lt;div&gt;&lt;/div&gt;&lt;div&gt;&lt;/div&gt;&lt;div&gt;&lt;/div&gt;&lt;/div&gt;&lt;/div&gt;" style="text;html=1;strokeColor=none;fillColor=none;align=center;verticalAlign=middle;whiteSpace=wrap;rounded=0;" parent="1" vertex="1">
          <mxGeometry x="287" y="227.5" width="253" height="52.5" as="geometry" />
        </mxCell>
        <mxCell id="94RK0DoZ00d1Tz80vGn9-25" value="&lt;b&gt;Same Domain - &quot;restaurant&quot;&lt;/b&gt;" style="text;html=1;strokeColor=none;fillColor=none;align=center;verticalAlign=middle;whiteSpace=wrap;rounded=0;" parent="1" vertex="1">
          <mxGeometry x="493" y="110" width="164" height="12" as="geometry" />
        </mxCell>
        <mxCell id="ZvaVnCW54o77c7x1LeFd-2" value="" style="endArrow=classic;startArrow=classic;html=1;entryX=0;entryY=0.5;entryDx=0;entryDy=0;" parent="1" target="94RK0DoZ00d1Tz80vGn9-5" edge="1">
          <mxGeometry width="50" height="50" relative="1" as="geometry">
            <mxPoint x="550" y="165" as="sourcePoint" />
            <mxPoint x="628" y="164.8" as="targetPoint" />
          </mxGeometry>
        </mxCell>
        <mxCell id="ZvaVnCW54o77c7x1LeFd-3" value="&lt;div class=&quot;mind-clipboard&quot; style=&quot;line-height: 120%&quot;&gt;&lt;div style=&quot;text-align: left&quot;&gt;&lt;br&gt;&lt;/div&gt;&lt;div style=&quot;text-align: left&quot;&gt;&lt;div&gt;&lt;/div&gt;&lt;div&gt;&lt;/div&gt;&lt;div&gt;&lt;/div&gt;&lt;/div&gt;&lt;/div&gt;" style="rounded=0;whiteSpace=wrap;html=1;" parent="1" vertex="1">
          <mxGeometry x="580" y="220" width="270" height="70" as="geometry" />
        </mxCell>
        <mxCell id="ZvaVnCW54o77c7x1LeFd-4" value="&lt;div style=&quot;text-align: left&quot;&gt;&lt;div class=&quot;mind-clipboard&quot; style=&quot;text-align: justify&quot;&gt;&lt;b&gt;S2-A2:&amp;nbsp;&lt;/b&gt;&lt;b&gt;&lt;i&gt;Anyway, the food is good, the &lt;u&gt;price&lt;/u&gt; is right and they have a decent wine list.&lt;/i&gt;&lt;/b&gt;&lt;/div&gt;&lt;div class=&quot;mind-clipboard&quot;&gt;&lt;div&gt;&lt;div&gt;&lt;/div&gt;-&amp;nbsp;Aspect&amp;nbsp;=&amp;nbsp;&lt;span style=&quot;color: rgb(245 , 124 , 0)&quot;&gt;price&lt;/span&gt;, polarity = &lt;font color=&quot;#009900&quot;&gt;positive&lt;/font&gt;&lt;div&gt;&lt;/div&gt;&lt;div&gt;&lt;/div&gt;&lt;/div&gt;&lt;div&gt;&lt;/div&gt;&lt;div&gt;&lt;/div&gt;&lt;div&gt;&lt;/div&gt;&lt;/div&gt;&lt;/div&gt;" style="text;html=1;strokeColor=none;fillColor=none;align=center;verticalAlign=middle;whiteSpace=wrap;rounded=0;" parent="1" vertex="1">
          <mxGeometry x="587" y="227.5" width="253" height="52.5" as="geometry" />
        </mxCell>
        <mxCell id="ZvaVnCW54o77c7x1LeFd-5" value="" style="endArrow=classic;startArrow=classic;html=1;entryX=-0.002;entryY=0.477;entryDx=0;entryDy=0;entryPerimeter=0;" parent="1" target="ZvaVnCW54o77c7x1LeFd-3" edge="1">
          <mxGeometry width="50" height="50" relative="1" as="geometry">
            <mxPoint x="550" y="253" as="sourcePoint" />
            <mxPoint x="628" y="253.55" as="targetPoint" />
          </mxGeometry>
        </mxCell>
        <mxCell id="ZvaVnCW54o77c7x1LeFd-7" value="" style="endArrow=classic;startArrow=classic;html=1;exitX=0.5;exitY=0;exitDx=0;exitDy=0;entryX=0.5;entryY=1;entryDx=0;entryDy=0;" parent="1" source="94RK0DoZ00d1Tz80vGn9-7" target="94RK0DoZ00d1Tz80vGn9-3" edge="1">
          <mxGeometry width="50" height="50" relative="1" as="geometry">
            <mxPoint x="420" y="120" as="sourcePoint" />
            <mxPoint x="435" y="200" as="targetPoint" />
          </mxGeometry>
        </mxCell>
        <mxCell id="ZvaVnCW54o77c7x1LeFd-15" value="" style="rounded=1;whiteSpace=wrap;html=1;fillColor=none;dashed=1;strokeColor=#999999;strokeWidth=1.5;" parent="1" vertex="1">
          <mxGeometry x="210" y="213.75" width="650" height="80" as="geometry" />
        </mxCell>
        <mxCell id="ZvaVnCW54o77c7x1LeFd-16" value="Sentence1" style="text;html=1;strokeColor=none;fillColor=none;align=center;verticalAlign=middle;whiteSpace=wrap;rounded=0;dashed=1;" parent="1" vertex="1">
          <mxGeometry x="220" y="155" width="40" height="20" as="geometry" />
        </mxCell>
        <mxCell id="ZvaVnCW54o77c7x1LeFd-19" value="" style="endArrow=classic;startArrow=classic;html=1;exitX=0.5;exitY=0;exitDx=0;exitDy=0;entryX=0.5;entryY=1;entryDx=0;entryDy=0;" parent="1" edge="1">
          <mxGeometry width="50" height="50" relative="1" as="geometry">
            <mxPoint x="723.2599999999998" y="220" as="sourcePoint" />
            <mxPoint x="723.2599999999998" y="199.9999999999999" as="targetPoint" />
          </mxGeometry>
        </mxCell>
        <mxCell id="ZvaVnCW54o77c7x1LeFd-21" value="" style="endArrow=classic;startArrow=classic;html=1;entryX=1;entryY=1;entryDx=0;entryDy=0;exitX=0;exitY=0;exitDx=0;exitDy=0;" parent="1" source="ZvaVnCW54o77c7x1LeFd-3" target="94RK0DoZ00d1Tz80vGn9-3" edge="1">
          <mxGeometry width="50" height="50" relative="1" as="geometry">
            <mxPoint x="210" y="320" as="sourcePoint" />
            <mxPoint x="260" y="270" as="targetPoint" />
          </mxGeometry>
        </mxCell>
        <mxCell id="ZvaVnCW54o77c7x1LeFd-22" value="" style="endArrow=classic;startArrow=classic;html=1;entryX=0;entryY=1;entryDx=0;entryDy=0;exitX=1;exitY=0;exitDx=0;exitDy=0;" parent="1" source="94RK0DoZ00d1Tz80vGn9-7" target="94RK0DoZ00d1Tz80vGn9-5" edge="1">
          <mxGeometry width="50" height="50" relative="1" as="geometry">
            <mxPoint x="210" y="270" as="sourcePoint" />
            <mxPoint x="260" y="220" as="targetPoint" />
          </mxGeometry>
        </mxCell>
        <mxCell id="ZvaVnCW54o77c7x1LeFd-23" value="&lt;font style=&quot;font-size: 12px&quot;&gt;Sentence2&lt;/font&gt;" style="text;html=1;strokeColor=none;fillColor=none;align=center;verticalAlign=middle;whiteSpace=wrap;rounded=0;dashed=1;" parent="1" vertex="1">
          <mxGeometry x="220" y="243.75" width="40" height="20" as="geometry" />
        </mxCell>
        <mxCell id="ZvaVnCW54o77c7x1LeFd-25" value="" style="rounded=1;whiteSpace=wrap;html=1;fillColor=none;dashed=1;strokeColor=#999999;strokeWidth=1.5;" parent="1" vertex="1">
          <mxGeometry x="210" y="125" width="650" height="80" as="geometry" />
        </mxCell>
      </root>
    </mxGraphModel>
  </diagram>
</mxfile>
